<svg width="1110" height="200" aria-label="A chart." style="overflow: hidden;"><defs id="_ABSTRACT_RENDERER_ID_13"><filter id="_ABSTRACT_RENDERER_ID_30"><feGaussianBlur in="SourceAlpha" stdDeviation="2"></feGaussianBlur><feOffset dx="1" dy="1"></feOffset><feComponentTransfer><feFuncA type="linear" slope="0.1"></feFuncA></feComponentTransfer><feMerge><feMergeNode></feMergeNode><feMergeNode in="SourceGraphic"></feMergeNode></feMerge></filter></defs><g><path d="M556,100L556,10A90,90,0,0,1,572.2924069381708,11.486964371562507L556,100A0,0,0,0,0,556,100" stroke="#ffffff" stroke-width="1" fill="#dc7633"></path></g><g><path d="M556,100L572.2924069381708,11.486964371562507A90,90,0,0,1,576.1645488387304,12.28802265294405L556,100A0,0,0,0,0,556,100" stroke="#ffffff" stroke-width="1" fill="#34495e"></path></g><g><path d="M556,100L576.1645488387304,12.28802265294405A90,90,0,0,1,642.5506535940983,75.32239147659595L556,100A0,0,0,0,0,556,100" stroke="#ffffff" stroke-width="1" fill="#bfc9ca"></path><text text-anchor="start" x="584.0688530142089" y="60.59421356541707" font-family="Arial" font-size="14" stroke="none" stroke-width="0" fill="#ffffff">17%</text></g><g><path d="M556,100L642.5506535940983,75.32239147659595A90,90,0,0,1,632.3924388423454,147.58356110799724L556,100A0,0,0,0,0,556,100" stroke="#ffffff" stroke-width="1" fill="#2980b9"></path><text text-anchor="start" x="590.5704528691901" y="112.57131755787074" font-family="Arial" font-size="14" stroke="none" stroke-width="0" fill="#ffffff">13.3%</text></g><g><path d="M556,100L482.0922726566516,151.35803577767814A90,90,0,0,1,556,10L556,100A0,0,0,0,0,556,100" stroke="#ffffff" stroke-width="1" fill="#af7ac5"></path><text text-anchor="start" x="487.28537321137884" y="79.43001285339786" font-family="Arial" font-size="14" stroke="none" stroke-width="0" fill="#ffffff">34.7%</text></g><g><path d="M556,100L546.1337384893135,189.4575702990124A90,90,0,0,1,482.0922726566516,151.35803577767814L556,100A0,0,0,0,0,556,100" stroke="#ffffff" stroke-width="1" fill="#f1c40f"></path><text text-anchor="start" x="506.0746537701534" y="155.20148168965565" font-family="Arial" font-size="14" stroke="none" stroke-width="0" fill="#ffffff">13.6%</text></g><g><path d="M556,100L552.8935474927262,189.94637264959636A90,90,0,0,1,546.1337384893134,189.4575702990124L556,100A0,0,0,0,0,556,100" stroke="#ffffff" stroke-width="1" fill="#d6eaf8"></path></g><g><path d="M556,100L632.3924388423454,147.58356110799724A90,90,0,0,1,552.8935474927263,189.94637264959636L556,100A0,0,0,0,0,556,100" stroke="#ffffff" stroke-width="1" fill="#f7dc6f"></path><text text-anchor="start" x="563.7687201543206" y="157.01133034214513" font-family="Arial" font-size="14" stroke="none" stroke-width="0" fill="#ffffff">16.7%</text></g><g><g><g><text text-anchor="end" x="1055" y="21.573671199011123" font-family="Arial" font-size="14" font-weight="bold" stroke="none" stroke-width="0" fill="#34495e">biomass</text></g><g><text text-anchor="end" x="1055" y="44.226328800988874" font-family="Arial" font-size="14" font-weight="bold" stroke="none" stroke-width="0" fill="#9e9e9e">2.9%</text></g></g><g><path d="M562.5,33.5L660,33.5L660,28.5L1055.5,28.5" stroke="#636363" stroke-width="1" stroke-opacity="0.7" fill-opacity="1" fill="none"></path><circle cx="562.5" cy="33.5" r="2" stroke="none" stroke-width="0" fill-opacity="0.7" fill="#636363"></circle></g><g><g><text text-anchor="end" x="1055" y="62.57367119901112" font-family="Arial" font-size="14" font-weight="bold" stroke="none" stroke-width="0" fill="#34495e">imports</text></g><g><text text-anchor="end" x="1055" y="85.22632880098888" font-family="Arial" font-size="14" font-weight="bold" stroke="none" stroke-width="0" fill="#9e9e9e">17%</text></g></g><g><path d="M614.5,66.5L660,66.5L660,69.5L1055.5,69.5" stroke="#636363" stroke-width="1" stroke-opacity="0.7" fill-opacity="1" fill="none"></path><circle cx="614.5" cy="66.5" r="2" stroke="none" stroke-width="0" fill-opacity="0.7" fill="#636363"></circle></g><g><g><text text-anchor="end" x="1055" y="103.57367119901113" font-family="Arial" font-size="14" font-weight="bold" stroke="none" stroke-width="0" fill="#34495e">gas</text></g><g><text text-anchor="end" x="1055" y="126.22632880098888" font-family="Arial" font-size="14" font-weight="bold" stroke="none" stroke-width="0" fill="#9e9e9e">13.3%</text></g></g><g><path d="M623.5,110.5L660,110.5L660,110.5L1055.5,110.5" stroke="#636363" stroke-width="1" stroke-opacity="0.7" fill-opacity="1" fill="none"></path><circle cx="623.5" cy="110.5" r="2" stroke="none" stroke-width="0" fill-opacity="0.7" fill="#636363"></circle></g><g><g><text text-anchor="end" x="1055" y="153.57367119901113" font-family="Arial" font-size="14" font-weight="bold" stroke="none" stroke-width="0" fill="#34495e">nuclear</text></g><g><text text-anchor="end" x="1055" y="176.22632880098888" font-family="Arial" font-size="14" font-weight="bold" stroke="none" stroke-width="0" fill="#9e9e9e">16.7%</text></g></g><g><path d="M588.5,160.5L660,160.5L660,160.5L1055.5,160.5" stroke="#636363" stroke-width="1" stroke-opacity="0.7" fill-opacity="1" fill="none"></path><circle cx="588.5" cy="160.5" r="2" stroke="none" stroke-width="0" fill-opacity="0.7" fill="#636363"></circle></g><g><g><text text-anchor="start" x="56" y="165.57367119901113" font-family="Arial" font-size="14" font-weight="bold" stroke="none" stroke-width="0" fill="#34495e">hydro</text></g><g><text text-anchor="start" x="56" y="188.22632880098888" font-family="Arial" font-size="14" font-weight="bold" stroke="none" stroke-width="0" fill="#9e9e9e">1.2%</text></g></g><g><path d="M551.5,167.5L452,167.5L452,172.5L56.5,172.5" stroke="#636363" stroke-width="1" stroke-opacity="0.7" fill-opacity="1" fill="none"></path><circle cx="551.5" cy="167.5" r="2" stroke="none" stroke-width="0" fill-opacity="0.7" fill="#636363"></circle></g><g><g><text text-anchor="start" x="56" y="124.57367119901113" font-family="Arial" font-size="14" font-weight="bold" stroke="none" stroke-width="0" fill="#34495e">solar</text></g><g><text text-anchor="start" x="56" y="147.22632880098888" font-family="Arial" font-size="14" font-weight="bold" stroke="none" stroke-width="0" fill="#9e9e9e">13.6%</text></g></g><g><path d="M512.5,151.5L452,151.5L452,131.5L56.5,131.5" stroke="#636363" stroke-width="1" stroke-opacity="0.7" fill-opacity="1" fill="none"></path><circle cx="512.5" cy="151.5" r="2" stroke="none" stroke-width="0" fill-opacity="0.7" fill="#636363"></circle></g><g><g><text text-anchor="start" x="56" y="62.57367119901112" font-family="Arial" font-size="14" font-weight="bold" stroke="none" stroke-width="0" fill="#34495e">wind</text></g><g><text text-anchor="start" x="56" y="85.22632880098888" font-family="Arial" font-size="14" font-weight="bold" stroke="none" stroke-width="0" fill="#9e9e9e">34.7%</text></g></g><g><path d="M496.5,69.5L452,69.5L452,69.5L56.5,69.5" stroke="#636363" stroke-width="1" stroke-opacity="0.7" fill-opacity="1" fill="none"></path><circle cx="496.5" cy="69.5" r="2" stroke="none" stroke-width="0" fill-opacity="0.7" fill="#636363"></circle></g></g><g></g></svg>